<svg width="400" height="400" viewBox="0 0 400 400" fill="none" xmlns="http://www.w3.org/2000/svg">
<path d="M74.3587 283.333C67.5318 283.333 61.7653 280.98 57.0592 276.274C52.3531 271.568 50 265.766 50 258.868V141.132C50 134.234 52.3531 128.432 57.0592 123.726C61.7653 119.02 67.5318 116.667 74.3587 116.667H325.641C332.468 116.667 338.235 119.02 342.941 123.726C347.647 128.432 350 134.234 350 141.132V258.868C350 265.766 347.647 271.568 342.941 276.274C338.235 280.98 332.468 283.333 325.641 283.333H74.3587ZM74.3587 269.231H325.641C328.205 269.231 330.556 268.162 332.692 266.026C334.829 263.889 335.897 261.539 335.897 258.975V141.025C335.897 138.461 334.829 136.111 332.692 133.974C330.556 131.837 328.205 130.769 325.641 130.769H74.3587C71.7946 130.769 69.4442 131.837 67.3075 133.974C65.1708 136.111 64.1025 138.461 64.1025 141.025V258.975C64.1025 261.539 65.1708 263.889 67.3075 266.026C69.4442 268.162 71.7946 269.231 74.3587 269.231ZM126.282 207.051V236.367C126.282 238.366 126.964 240.04 128.327 241.392C129.691 242.743 131.381 243.419 133.397 243.419C135.413 243.419 137.082 242.743 138.403 241.392C139.724 240.04 140.385 238.366 140.385 236.367V207.051H169.701C171.699 207.051 173.374 206.369 174.725 205.006C176.076 203.642 176.752 201.952 176.752 199.936C176.752 197.92 176.076 196.252 174.725 194.93C173.374 193.609 171.699 192.949 169.701 192.949H140.385V163.632C140.385 161.634 139.703 159.96 138.339 158.608C136.975 157.257 135.285 156.581 133.27 156.581C131.254 156.581 129.585 157.257 128.264 158.608C126.943 159.96 126.282 161.634 126.282 163.632V192.949H96.9658C94.9678 192.949 93.2931 193.631 91.9417 194.994C90.5903 196.358 89.9146 198.048 89.9146 200.064C89.9146 202.08 90.5903 203.748 91.9417 205.07C93.2931 206.391 94.9678 207.051 96.9658 207.051H126.282ZM243.317 241.197C247.352 241.197 250.807 239.772 253.68 236.923C256.555 234.075 257.992 230.597 257.992 226.491C257.992 222.384 256.567 218.894 253.718 216.02C250.869 213.146 247.428 211.71 243.393 211.71C239.358 211.71 235.867 213.134 232.922 215.982C229.977 218.831 228.504 222.309 228.504 226.415C228.504 230.522 229.979 234.012 232.929 236.886C235.878 239.76 239.341 241.197 243.317 241.197ZM289.471 188.226C293.506 188.226 296.96 186.802 299.834 183.953C302.708 181.104 304.145 177.627 304.145 173.52C304.145 169.414 302.721 165.924 299.872 163.05C297.023 160.176 293.581 158.739 289.546 158.739C285.511 158.739 282.021 160.164 279.076 163.012C276.131 165.861 274.658 169.339 274.658 173.445C274.658 177.551 276.133 181.041 279.082 183.915C282.032 186.789 285.495 188.226 289.471 188.226Z" fill="white"/>
</svg>
