<svg width="125" height="125" viewBox="0 0 125 125" fill="none" xmlns="http://www.w3.org/2000/svg">
<path d="M62.5 91.3267C61.5442 91.3267 60.6624 91.1702 59.8546 90.8574C59.0467 90.5444 58.2559 90.0011 57.4823 89.2275L34.2365 65.9817C33.3717 65.1169 32.9195 64.0986 32.8797 62.9267C32.8397 61.7547 33.292 60.6794 34.2365 59.7008C35.2151 58.7224 36.2704 58.2245 37.4024 58.2074C38.5345 58.1904 39.5899 58.6712 40.5685 59.6498L58.0625 77.1437V4.8125C58.0625 3.54944 58.4864 2.49413 59.3341 1.64657C60.1816 0.798859 61.2369 0.375 62.5 0.375C63.7631 0.375 64.8184 0.798859 65.6659 1.64657C66.5136 2.49413 66.9375 3.54944 66.9375 4.8125V77.1437L84.4315 59.6498C85.2962 58.7849 86.3231 58.3326 87.5122 58.2928C88.7011 58.253 89.7849 58.7224 90.7635 59.7008C91.708 60.6794 92.1887 61.7262 92.2057 62.8412C92.2227 63.9564 91.742 65.0032 90.7635 65.9817L67.5177 89.2275C66.7441 90.0011 65.9533 90.5444 65.1454 90.8574C64.3376 91.1702 63.4558 91.3267 62.5 91.3267ZM14.7115 124.625C10.6267 124.625 7.21615 123.257 4.47969 120.52C1.74323 117.784 0.375 114.373 0.375 110.289V93.2213C0.375 91.9582 0.798856 90.9028 1.64657 90.0551C2.49413 89.2075 3.54944 88.7838 4.8125 88.7838C6.07541 88.7838 7.13072 89.2075 7.97843 90.0551C8.82614 90.9028 9.25 91.9582 9.25 93.2213V110.289C9.25 111.654 9.81889 112.905 10.9567 114.043C12.0946 115.181 13.3462 115.75 14.7115 115.75H110.289C111.654 115.75 112.905 115.181 114.043 114.043C115.181 112.905 115.75 111.654 115.75 110.289V93.2213C115.75 91.9582 116.174 90.9028 117.022 90.0551C117.869 89.2075 118.925 88.7838 120.188 88.7838C121.451 88.7838 122.506 89.2075 123.353 90.0551C124.201 90.9028 124.625 91.9582 124.625 93.2213V110.289C124.625 114.373 123.257 117.784 120.52 120.52C117.784 123.257 114.373 124.625 110.289 124.625H14.7115Z" fill="white"/>
</svg>
