<svg width="213" height="213" viewBox="0 0 213 213" fill="none" xmlns="http://www.w3.org/2000/svg">
<path d="M106.5 135.327C105.544 135.327 104.662 135.17 103.855 134.857C103.047 134.544 102.256 134.001 101.482 133.228L78.2365 109.982C77.3717 109.117 76.9195 108.099 76.8797 106.927C76.8397 105.755 77.292 104.679 78.2365 103.701C79.2151 102.722 80.2704 102.225 81.4024 102.207C82.5345 102.19 83.5899 102.671 84.5685 103.65L102.062 121.144V48.8125C102.062 47.5494 102.486 46.4941 103.334 45.6466C104.182 44.7989 105.237 44.375 106.5 44.375C107.763 44.375 108.818 44.7989 109.666 45.6466C110.514 46.4941 110.937 47.5494 110.937 48.8125V121.144L128.431 103.65C129.296 102.785 130.323 102.333 131.512 102.293C132.701 102.253 133.785 102.722 134.764 103.701C135.708 104.679 136.189 105.726 136.206 106.841C136.223 107.956 135.742 109.003 134.764 109.982L111.518 133.228C110.744 134.001 109.953 134.544 109.145 134.857C108.338 135.17 107.456 135.327 106.5 135.327ZM58.7115 168.625C54.6267 168.625 51.2161 167.257 48.4797 164.52C45.7432 161.784 44.375 158.373 44.375 154.289V137.221C44.375 135.958 44.7989 134.903 45.6466 134.055C46.4941 133.208 47.5494 132.784 48.8125 132.784C50.0754 132.784 51.1307 133.208 51.9784 134.055C52.8261 134.903 53.25 135.958 53.25 137.221V154.289C53.25 155.654 53.8189 156.905 54.9567 158.043C56.0946 159.181 57.3462 159.75 58.7115 159.75H154.289C155.654 159.75 156.905 159.181 158.043 158.043C159.181 156.905 159.75 155.654 159.75 154.289V137.221C159.75 135.958 160.174 134.903 161.022 134.055C161.869 133.208 162.925 132.784 164.187 132.784C165.451 132.784 166.506 133.208 167.353 134.055C168.201 134.903 168.625 135.958 168.625 137.221V154.289C168.625 158.373 167.257 161.784 164.52 164.52C161.784 167.257 158.373 168.625 154.289 168.625H58.7115Z" fill="white"/>
</svg>
