<svg width="400" height="400" viewBox="0 0 400 400" fill="none" xmlns="http://www.w3.org/2000/svg">
<path d="M191.731 321.154C183.725 321.154 176.362 318.981 169.642 314.637C162.922 310.292 157.992 304.43 154.851 297.051C153.918 295.071 154.211 293.173 155.732 291.357C157.253 289.541 159.26 288.632 161.752 288.632C163.145 288.632 164.474 289.092 165.74 290.011C167.006 290.929 167.974 292.158 168.644 293.697C170.93 297.721 174.176 300.953 178.382 303.392C182.589 305.831 187.038 307.051 191.731 307.051C199.147 307.051 205.495 304.427 210.776 299.178C216.057 293.929 218.697 287.621 218.697 280.252C218.697 272.883 216.057 266.59 210.776 261.373C205.495 256.156 199.147 253.547 191.731 253.547H48.7182C46.7096 253.547 45.0323 252.869 43.6862 251.513C42.34 250.157 41.667 248.467 41.667 246.443C41.667 244.42 42.34 242.748 43.6862 241.426C45.0323 240.105 46.7096 239.445 48.7182 239.445H191.731C203.103 239.445 212.791 243.416 220.795 251.358C228.798 259.3 232.8 268.914 232.8 280.199C232.8 291.484 228.798 301.131 220.795 309.14C212.791 317.149 203.103 321.154 191.731 321.154ZM48.7182 161.239C46.7096 161.239 45.0323 160.561 43.6862 159.205C42.34 157.849 41.667 156.159 41.667 154.135C41.667 152.112 42.34 150.44 43.6862 149.119C45.0323 147.797 46.7096 147.137 48.7182 147.137H258.74C268.403 147.137 276.723 143.633 283.7 136.625C290.678 129.618 294.167 121.261 294.167 111.556C294.167 101.851 290.678 93.5452 283.7 86.64C276.723 79.7347 268.403 76.2821 258.74 76.2821C251.484 76.2821 244.919 78.2211 239.046 82.0992C233.172 85.9775 228.932 91.2215 226.325 97.8312C225.72 99.2698 224.831 100.475 223.659 101.447C222.487 102.42 221.186 102.906 219.754 102.906C217.282 102.906 215.274 101.973 213.728 100.107C212.183 98.2405 211.788 96.136 212.543 93.7929C216.161 84.1346 222.164 76.4511 230.55 70.7425C238.937 65.0339 248.334 62.1796 258.74 62.1796C272.529 62.1796 284.231 66.9872 293.847 76.6025C303.462 86.2178 308.27 97.92 308.27 111.709C308.27 125.499 303.462 137.201 293.847 146.816C284.231 156.432 272.529 161.239 258.74 161.239H48.7182ZM326.432 288.483C324.025 289.117 321.952 288.666 320.214 287.131C318.476 285.596 317.607 283.654 317.607 281.303C317.607 279.865 318.093 278.532 319.065 277.303C320.038 276.074 321.243 275.157 322.682 274.551C329.477 271.945 334.767 267.704 338.553 261.831C342.338 255.957 344.231 249.393 344.231 242.137C344.231 232.557 340.788 224.371 333.902 217.58C327.015 210.789 318.806 207.393 309.274 207.393H48.7182C46.7096 207.393 45.0323 206.715 43.6862 205.359C42.34 204.003 41.667 202.313 41.667 200.29C41.667 198.266 42.34 196.594 43.6862 195.272C45.0323 193.951 46.7096 193.29 48.7182 193.29H309.274C322.988 193.29 334.594 198.056 344.09 207.586C353.586 217.117 358.334 228.634 358.334 242.137C358.334 252.664 355.481 262.181 349.776 270.689C344.071 279.197 336.289 285.128 326.432 288.483Z" fill="white"/>
</svg>
