<svg width="400" height="400" viewBox="0 0 400 400" fill="none" xmlns="http://www.w3.org/2000/svg">
<path d="M200 350C179.337 350 159.882 346.052 141.635 338.157C123.387 330.262 107.5 319.551 93.9742 306.026C80.4486 292.5 69.7382 276.613 61.8429 258.365C53.9476 240.118 50 220.662 50 200C50 179.295 53.9476 159.829 61.8429 141.603C69.7382 123.376 80.4486 107.5 93.9742 93.9742C107.5 80.4486 123.387 69.7382 141.635 61.8429C159.882 53.9476 179.337 50 200 50C220.705 50 240.171 53.9476 258.397 61.8429C276.624 69.7382 292.5 80.4486 306.026 93.9742C319.551 107.5 330.262 123.376 338.157 141.603C346.052 159.829 350 179.295 350 200C350 220.662 346.052 240.118 338.157 258.365C330.262 276.613 319.551 292.5 306.026 306.026C292.5 319.551 276.624 330.262 258.397 338.157C240.171 346.052 220.705 350 200 350ZM278.312 168.825L309.039 158.59L317.329 129.038C308.212 114.281 296.656 101.708 282.66 91.3196C268.665 80.9312 252.906 73.2407 235.385 68.2479L207.051 88.0342V118.889L278.312 168.825ZM121.966 168.825L192.949 118.889V88.0342L164.68 68.2479C147.301 73.2407 131.685 80.9312 117.831 91.3196C103.978 101.708 92.564 114.281 83.5896 129.038L92.3504 158.59L121.966 168.825ZM98.3546 291.731L126.325 289.017L143.889 260.47L118.611 183.248L86.8375 172.521L64.1025 189.445C64.1025 209.58 66.4174 227.723 71.0471 243.873C75.6765 260.023 84.779 275.976 98.3546 291.731ZM200 335.897C207.265 335.897 214.708 335.232 222.329 333.9C229.95 332.568 238.006 330.684 246.496 328.248L261.261 296.068L245.769 270.406H154.295L139.445 296.068L154.423 328.248C161.959 330.684 169.623 332.568 177.415 333.9C185.207 335.232 192.735 335.897 200 335.897ZM157.201 256.303H242.97L268.12 179.188L200 130.812L131.325 179.188L157.201 256.303ZM301.71 291.731C315.242 275.976 324.323 260.023 328.953 243.873C333.583 227.723 335.897 209.58 335.897 189.445L313.803 173.825L281.453 182.607L256.175 260.47L273.675 289.017L301.71 291.731Z" fill="white"/>
</svg>
