<svg width="400" height="400" viewBox="0 0 400 400" fill="none" xmlns="http://www.w3.org/2000/svg">
<path d="M138.269 209.452V139.536C138.269 136.179 139.403 133.364 141.672 131.093C143.941 128.822 146.753 127.686 150.108 127.686H153.49C155.886 127.686 157.895 128.497 159.515 130.12C161.136 131.742 161.947 133.752 161.947 136.151V209.452L161.524 209.029C158.339 205.718 154.532 204.063 150.101 204.063C145.67 204.063 141.867 205.718 138.691 209.029L138.269 209.452ZM201.973 242.181V80.8502C201.973 77.4926 203.108 74.6783 205.377 72.4071C207.646 70.1357 210.458 69 213.812 69H217.195C219.591 69 221.599 69.8112 223.22 71.4336C224.841 73.0558 225.651 75.0661 225.651 77.4644V218.481L201.973 242.181ZM74 273.612V198.223C74 194.865 75.1346 192.051 77.4039 189.779C79.6729 187.508 82.4846 186.372 85.839 186.372H89.2217C91.6177 186.372 93.626 187.184 95.2467 188.806C96.8676 190.428 97.6781 192.438 97.6781 194.837V249.911L74 273.612ZM89.9065 331C86.6313 331 84.3687 329.509 83.1189 326.528C81.8694 323.547 82.4378 320.861 84.8243 318.473L142.102 261.141C144.226 259.015 146.842 257.83 149.951 257.586C153.06 257.341 155.819 258.282 158.226 260.407L201.973 298.046L300.969 198.956H274.698C272.622 198.956 270.881 198.252 269.476 196.844C268.072 195.436 267.369 193.692 267.369 191.61C267.369 189.529 268.072 187.788 269.476 186.387C270.881 184.985 272.622 184.285 274.698 184.285H314.161C317.515 184.285 320.327 185.42 322.596 187.691C324.865 189.963 326 192.777 326 196.135V235.635C326 237.713 325.297 239.456 323.89 240.862C322.484 242.268 320.741 242.971 318.661 242.971C316.582 242.971 314.842 242.268 313.442 240.862C312.042 239.456 311.342 237.713 311.342 235.635V209.339L210.148 310.629C208.024 312.755 205.408 313.94 202.299 314.184C199.189 314.429 196.431 313.488 194.024 311.363L150.277 273.725L95.1976 328.856C94.5678 329.451 93.7804 329.958 92.8355 330.375C91.8906 330.792 90.9143 331 89.9065 331Z" fill="white"/>
</svg>
