<svg width="363" height="363" viewBox="0 0 363 363" fill="none" xmlns="http://www.w3.org/2000/svg">
<path d="M181.568 229.202C196.939 229.202 209.981 223.822 220.694 213.063C231.408 202.304 236.765 189.239 236.765 173.869C236.765 158.499 231.385 145.457 220.626 134.743C209.867 124.03 196.802 118.673 181.432 118.673C166.061 118.673 153.019 124.053 142.306 134.812C131.592 145.571 126.236 158.636 126.236 174.006C126.236 189.376 131.615 202.418 142.374 213.132C153.133 223.845 166.198 229.202 181.568 229.202ZM181.5 214.775C170.156 214.775 160.514 210.805 152.573 202.864C144.633 194.923 140.663 185.281 140.663 173.938C140.663 162.594 144.633 152.952 152.573 145.011C160.514 137.07 170.156 133.1 181.5 133.1C192.844 133.1 202.486 137.07 210.427 145.011C218.367 152.952 222.338 162.594 222.338 173.938C222.338 185.281 218.367 194.923 210.427 202.864C202.486 210.805 192.844 214.775 181.5 214.775ZM181.5 272.25C151.599 272.25 124.175 264.338 99.2287 248.515C74.2821 232.692 54.1299 211.944 38.7722 186.27C37.5118 184.195 36.615 182.15 36.0818 180.133C35.5484 178.116 35.2817 176.046 35.2817 173.923C35.2817 171.799 35.5484 169.734 36.0818 167.728C36.615 165.72 37.5118 163.68 38.7722 161.605C54.1299 135.931 74.2821 115.183 99.2287 99.3595C124.175 83.5365 151.599 75.625 181.5 75.625C211.401 75.625 238.825 83.5365 263.771 99.3595C288.718 115.183 308.87 135.931 324.228 161.605C325.488 163.68 326.385 165.725 326.918 167.742C327.452 169.759 327.718 171.829 327.718 173.952C327.718 176.076 327.452 178.141 326.918 180.147C326.385 182.155 325.488 184.195 324.228 186.27C308.87 211.944 288.718 232.692 263.771 248.515C238.825 264.338 211.401 272.25 181.5 272.25ZM181.5 257.125C209.985 257.125 236.139 249.626 259.961 234.627C283.783 219.628 301.996 199.398 314.6 173.938C301.996 148.477 283.783 128.247 259.961 113.248C236.139 98.2495 209.985 90.75 181.5 90.75C153.015 90.75 126.861 98.2495 103.039 113.248C79.2172 128.247 61.0042 148.477 48.4 173.938C61.0042 199.398 79.2172 219.628 103.039 234.627C126.861 249.626 153.015 257.125 181.5 257.125Z" fill="#888888"/>
</svg>
